# xmcd CD database file
#
# Track frame offsets:
#	150
#	22347
#	40222
#	59320
#	73732
#	95530
#	118027
#	135770
#	155227
#	175730
#	194857
#	221222
#	244602
#	262527
#	283750
#	303700
#
# Disc length: 4236 seconds
#
# Revision: 0
# Processed by: cddbd v1.5.1PL0 Copyright (c) Steve Scherf et al.
# Submitted via: CDex 1.51
#
DISCID=f4108a10
DTITLE=AI - FEAT.A.I.
DYEAR=2004
DGENRE=R&B
TTITLE0=HOT SPOT
TTITLE1=エンジェル
TTITLE2=No Generation Gap
TTITLE3=Welcome 2 Da Party
TTITLE4=STARSTRUCK〜"Ｔhe Return of the LuvBytes"
TTITLE5=THUNDER BREAK BEATS
TTITLE6=Rollin' on (remix)
TTITLE7=スーパーバックシャン [Yes,Sir]
TTITLE8=GOLD DIGGA
TTITLE9=JONAN音頭
TTITLE10=GOLDEN MIC [REMIX]
TTITLE11=Fatal Attraction
TTITLE12=Baby Shine
TTITLE13=somebody's girl
TTITLE14=LUV YA
TTITLE15=Baby Shine
EXTD=YEAR: 2004
EXTT0=
EXTT1=
EXTT2=
EXTT3=
EXTT4=
EXTT5=
EXTT6=
EXTT7=
EXTT8=
EXTT9=
EXTT10=
EXTT11=
EXTT12=
EXTT13=
EXTT14=
EXTT15=
PLAYORDER=
